<svg width="1200" height="630" xmlns="http://www.w3.org/2000/svg">
  <defs>
    <linearGradient id="bg" x1="0%" y1="0%" x2="100%" y2="100%">
      <stop offset="0%" style="stop-color:#0f0f23"/>
      <stop offset="100%" style="stop-color:#1a1a2e"/>
    </linearGradient>
    <linearGradient id="accent" x1="0%" y1="0%" x2="100%" y2="0%">
      <stop offset="0%" style="stop-color:#667eea"/>
      <stop offset="100%" style="stop-color:#764ba2"/>
    </linearGradient>
  </defs>

  <!-- Background -->
  <rect width="1200" height="630" fill="url(#bg)"/>

  <!-- Grid pattern -->
  <g opacity="0.1">
    <line x1="0" y1="100" x2="1200" y2="100" stroke="#667eea" stroke-width="1"/>
    <line x1="0" y1="200" x2="1200" y2="200" stroke="#667eea" stroke-width="1"/>
    <line x1="0" y1="300" x2="1200" y2="300" stroke="#667eea" stroke-width="1"/>
    <line x1="0" y1="400" x2="1200" y2="400" stroke="#667eea" stroke-width="1"/>
    <line x1="0" y1="500" x2="1200" y2="500" stroke="#667eea" stroke-width="1"/>
    <line x1="200" y1="0" x2="200" y2="630" stroke="#667eea" stroke-width="1"/>
    <line x1="400" y1="0" x2="400" y2="630" stroke="#667eea" stroke-width="1"/>
    <line x1="600" y1="0" x2="600" y2="630" stroke="#667eea" stroke-width="1"/>
    <line x1="800" y1="0" x2="800" y2="630" stroke="#667eea" stroke-width="1"/>
    <line x1="1000" y1="0" x2="1000" y2="630" stroke="#667eea" stroke-width="1"/>
  </g>

  <!-- Code window decoration -->
  <rect x="60" y="150" width="500" height="330" rx="12" fill="#1e1e3f" stroke="#667eea" stroke-width="2"/>
  <circle cx="90" cy="175" r="8" fill="#ff5f56"/>
  <circle cx="115" cy="175" r="8" fill="#ffbd2e"/>
  <circle cx="140" cy="175" r="8" fill="#27ca40"/>

  <!-- Code lines -->
  <text x="80" y="230" font-family="monospace" font-size="18" fill="#888">1</text>
  <text x="110" y="230" font-family="monospace" font-size="18" fill="#c792ea">function</text>
  <text x="200" y="230" font-family="monospace" font-size="18" fill="#82aaff"> outer</text>
  <text x="270" y="230" font-family="monospace" font-size="18" fill="#fff">() {</text>

  <text x="80" y="265" font-family="monospace" font-size="18" fill="#888">2</text>
  <text x="130" y="265" font-family="monospace" font-size="18" fill="#c792ea">let</text>
  <text x="170" y="265" font-family="monospace" font-size="18" fill="#fff"> count = </text>
  <text x="295" y="265" font-family="monospace" font-size="18" fill="#f78c6c">0</text>
  <text x="310" y="265" font-family="monospace" font-size="18" fill="#fff">;</text>

  <text x="80" y="300" font-family="monospace" font-size="18" fill="#888">3</text>
  <text x="130" y="300" font-family="monospace" font-size="18" fill="#c792ea">return</text>
  <text x="210" y="300" font-family="monospace" font-size="18" fill="#c792ea"> function</text>
  <text x="310" y="300" font-family="monospace" font-size="18" fill="#fff">() {</text>

  <text x="80" y="335" font-family="monospace" font-size="18" fill="#888">4</text>
  <text x="150" y="335" font-family="monospace" font-size="18" fill="#c792ea">return</text>
  <text x="230" y="335" font-family="monospace" font-size="18" fill="#fff"> count++;</text>

  <text x="80" y="370" font-family="monospace" font-size="18" fill="#888">5</text>
  <text x="130" y="370" font-family="monospace" font-size="18" fill="#fff">};</text>

  <text x="80" y="405" font-family="monospace" font-size="18" fill="#888">6</text>
  <text x="110" y="405" font-family="monospace" font-size="18" fill="#fff">}</text>

  <!-- Highlight current line -->
  <rect x="70" y="315" width="480" height="28" fill="#667eea" opacity="0.2" rx="4"/>

  <!-- Visualization box -->
  <rect x="620" y="150" width="520" height="330" rx="12" fill="#1e1e3f" stroke="#8b5cf6" stroke-width="2"/>
  <text x="640" y="185" font-family="sans-serif" font-size="16" fill="#8b5cf6" font-weight="bold">EXECUTION CONTEXT</text>

  <!-- Stack visualization -->
  <rect x="650" y="210" width="200" height="50" rx="6" fill="#667eea" opacity="0.3" stroke="#667eea"/>
  <text x="700" y="242" font-family="monospace" font-size="16" fill="#a5b4fc">outer()</text>

  <rect x="650" y="270" width="200" height="50" rx="6" fill="#8b5cf6" opacity="0.3" stroke="#8b5cf6"/>
  <text x="700" y="302" font-family="monospace" font-size="16" fill="#c4b5fd">inner()</text>

  <!-- Variable display -->
  <rect x="880" y="210" width="240" height="110" rx="6" fill="#10b981" opacity="0.1" stroke="#10b981"/>
  <text x="900" y="240" font-family="sans-serif" font-size="14" fill="#10b981" font-weight="bold">CLOSURE SCOPE</text>
  <text x="900" y="275" font-family="monospace" font-size="18" fill="#888">count:</text>
  <text x="980" y="275" font-family="monospace" font-size="24" fill="#10b981" font-weight="bold">3</text>

  <!-- Arrow showing closure -->
  <path d="M 850 295 Q 870 340 890 295" stroke="#f59e0b" stroke-width="2" fill="none" marker-end="url(#arrow)"/>
  <defs>
    <marker id="arrow" markerWidth="10" markerHeight="10" refX="9" refY="3" orient="auto">
      <path d="M0,0 L0,6 L9,3 z" fill="#f59e0b"/>
    </marker>
  </defs>

  <!-- Main title -->
  <text x="600" y="550" font-family="sans-serif" font-size="56" fill="url(#accent)" font-weight="bold" text-anchor="middle">JS Interview Prep</text>
  <text x="600" y="595" font-family="sans-serif" font-size="24" fill="#888" text-anchor="middle">Interactive Code Visualization for Technical Interviews</text>

  <!-- Badges -->
  <rect x="380" y="60" width="120" height="36" rx="18" fill="#10b981"/>
  <text x="440" y="85" font-family="sans-serif" font-size="16" fill="#000" font-weight="bold" text-anchor="middle">100+ Problems</text>

  <rect x="520" y="60" width="160" height="36" rx="18" fill="#667eea"/>
  <text x="600" y="85" font-family="sans-serif" font-size="16" fill="#fff" font-weight="bold" text-anchor="middle">Step-by-Step</text>

  <rect x="700" y="60" width="100" height="36" rx="18" fill="#f59e0b"/>
  <text x="750" y="85" font-family="sans-serif" font-size="16" fill="#000" font-weight="bold" text-anchor="middle">Free</text>
</svg>
